<?xml version="1.0" standalone="no"?><!DOCTYPE svg PUBLIC "-//W3C//DTD SVG 1.1//EN" "http://www.w3.org/Graphics/SVG/1.1/DTD/svg11.dtd"><svg height="1024" node-id="1" sillyvg="true" template-height="1024" template-width="1024" version="1.1" viewBox="0 0 1024 1024" width="1024" xmlns="http://www.w3.org/2000/svg" xmlns:xlink="http://www.w3.org/1999/xlink"><defs node-id="130"><linearGradient gradientUnits="objectBoundingBox" id="未命名的渐变_37" node-id="5" spreadMethod="pad" x1="212.14" x2="212.78" y1="933.32" y2="933.35"><stop offset="0" stop-color="#98d6fa"></stop><stop offset="1" stop-color="#47b0f1"></stop></linearGradient><linearGradient gradientUnits="objectBoundingBox" id="未命名的渐变_37-2" node-id="8" spreadMethod="pad" x1="212.14" x2="212.78" y1="933.32" y2="933.35"><stop offset="0" stop-color="#98d6fa"></stop><stop offset="1" stop-color="#47b0f1"></stop></linearGradient><linearGradient gradientUnits="objectBoundingBox" id="未命名的渐变_3" node-id="9" spreadMethod="pad" x1="213.77" x2="214.77" y1="931.76" y2="931.76"><stop offset="0" stop-color="#fff5de"></stop><stop offset="1" stop-color="#fbd2ac"></stop></linearGradient><linearGradient gradientUnits="objectBoundingBox" id="未命名的渐变_37-3" node-id="12" spreadMethod="pad" x1="211.01" x2="211.64" y1="934.89" y2="934.91"><stop offset="0" stop-color="#98d6fa"></stop><stop offset="1" stop-color="#47b0f1"></stop></linearGradient><linearGradient gradientUnits="objectBoundingBox" id="未命名的渐变_37-4" node-id="13" spreadMethod="pad" x1="209.74" x2="210.38" y1="936.45" y2="936.47"><stop offset="0" stop-color="#98d6fa"></stop><stop offset="1" stop-color="#47b0f1"></stop></linearGradient><linearGradient gradientUnits="objectBoundingBox" id="未命名的渐变_37-5" node-id="14" spreadMethod="pad" x1="209.74" x2="210.38" y1="936.45" y2="936.47"><stop offset="0" stop-color="#98d6fa"></stop><stop offset="1" stop-color="#47b0f1"></stop></linearGradient><linearGradient gradientUnits="objectBoundingBox" id="未命名的渐变_37-6" node-id="15" spreadMethod="pad" x1="207.92" x2="208.55" y1="938.7" y2="938.72"><stop offset="0" stop-color="#98d6fa"></stop><stop offset="1" stop-color="#47b0f1"></stop></linearGradient><linearGradient gradientUnits="objectBoundingBox" id="未命名的渐变_37-7" node-id="16" spreadMethod="pad" x1="213.04" x2="213.68" y1="931.65" y2="931.72"><stop offset="0" stop-color="#98d6fa"></stop><stop offset="1" stop-color="#47b0f1"></stop></linearGradient><linearGradient gradientUnits="objectBoundingBox" id="未命名的渐变_13" node-id="17" spreadMethod="pad" x1="213.03" x2="213.21" y1="932.64" y2="932.57"><stop offset="0.03" stop-color="#afdef9"></stop><stop offset="1" stop-color="#7cc9f9"></stop></linearGradient><linearGradient gradientUnits="objectBoundingBox" id="未命名的渐变_37-8" node-id="20" spreadMethod="pad" x1="213.04" x2="213.58" y1="931.63" y2="931.87"><stop offset="0" stop-color="#98d6fa"></stop><stop offset="1" stop-color="#47b0f1"></stop></linearGradient><linearGradient gradientUnits="objectBoundingBox" id="未命名的渐变_13-2" node-id="21" spreadMethod="pad" x1="212.15" x2="212.28" y1="932.39" y2="932.32"><stop offset="0.03" stop-color="#afdef9"></stop><stop offset="1" stop-color="#7cc9f9"></stop></linearGradient><linearGradient gradientUnits="objectBoundingBox" id="未命名的渐变_37-9" node-id="22" spreadMethod="pad" x1="212.43" x2="212.65" y1="931.36" y2="931.93"><stop offset="0" stop-color="#98d6fa"></stop><stop offset="1" stop-color="#47b0f1"></stop></linearGradient><linearGradient gradientUnits="objectBoundingBox" id="未命名的渐变_13-3" node-id="23" spreadMethod="pad" x1="211.26" x2="211.43" y1="931.99" y2="931.92"><stop offset="0.03" stop-color="#afdef9"></stop><stop offset="1" stop-color="#7cc9f9"></stop></linearGradient><linearGradient gradientUnits="objectBoundingBox" id="未命名的渐变_37-10" node-id="24" spreadMethod="pad" x1="209.44" x2="209.04" y1="933.56" y2="934.33"><stop offset="0" stop-color="#98d6fa"></stop><stop offset="1" stop-color="#47b0f1"></stop></linearGradient><linearGradient gradientUnits="objectBoundingBox" id="未命名的渐变_37-11" node-id="25" spreadMethod="pad" x1="208.91" x2="209.47" y1="932.9" y2="933.41"><stop offset="0" stop-color="#98d6fa"></stop><stop offset="1" stop-color="#47b0f1"></stop></linearGradient><linearGradient gradientUnits="objectBoundingBox" id="未命名的渐变_37-12" node-id="26" spreadMethod="pad" x1="209.46" x2="210.31" y1="933.63" y2="933.93"><stop offset="0" stop-color="#98d6fa"></stop><stop offset="1" stop-color="#47b0f1"></stop></linearGradient><linearGradient gradientUnits="objectBoundingBox" id="未命名的渐变_37-13" node-id="27" spreadMethod="pad" x1="210.5" x2="211.35" y1="933.26" y2="933.52"><stop offset="0" stop-color="#98d6fa"></stop><stop offset="1" stop-color="#47b0f1"></stop></linearGradient><linearGradient gradientUnits="objectBoundingBox" id="未命名的渐变_37-14" node-id="28" spreadMethod="pad" x1="208.38" x2="209.23" y1="934.55" y2="934.8"><stop offset="0" stop-color="#98d6fa"></stop><stop offset="1" stop-color="#47b0f1"></stop></linearGradient><linearGradient gradientUnits="objectBoundingBox" id="未命名的渐变_19" node-id="29" spreadMethod="pad" x1="214.79" x2="215.79" y1="932.46" y2="932.46"><stop offset="0" stop-color="#f5dda7"></stop><stop offset="1" stop-color="#fa9a41"></stop></linearGradient><linearGradient gradientUnits="objectBoundingBox" id="未命名的渐变_37-15" node-id="32" spreadMethod="pad" x1="213.44" x2="214.32" y1="931.37" y2="932.07"><stop offset="0" stop-color="#98d6fa"></stop><stop offset="1" stop-color="#47b0f1"></stop></linearGradient><linearGradient gradientUnits="objectBoundingBox" id="未命名的渐变_37-16" node-id="33" spreadMethod="pad" x1="213.34" x2="214.02" y1="932.03" y2="931.36"><stop offset="0" stop-color="#98d6fa"></stop><stop offset="1" stop-color="#47b0f1"></stop></linearGradient><linearGradient gradientUnits="objectBoundingBox" id="未命名的渐变_37-17" node-id="34" spreadMethod="pad" x1="212.32" x2="213.16" y1="932.35" y2="932.13"><stop offset="0" stop-color="#98d6fa"></stop><stop offset="1" stop-color="#47b0f1"></stop></linearGradient><linearGradient gradientUnits="objectBoundingBox" id="未命名的渐变_37-18" node-id="35" spreadMethod="pad" x1="211.94" x2="212.98" y1="939.89" y2="939.89"><stop offset="0" stop-color="#98d6fa"></stop><stop offset="1" stop-color="#47b0f1"></stop></linearGradient><linearGradient gradientUnits="objectBoundingBox" id="未命名的渐变_37-19" node-id="36" spreadMethod="pad" x1="211.94" x2="212.98" y1="939.89" y2="939.89"><stop offset="0" stop-color="#98d6fa"></stop><stop offset="1" stop-color="#47b0f1"></stop></linearGradient><linearGradient gradientUnits="objectBoundingBox" id="未命名的渐变_37-20" node-id="37" spreadMethod="pad" x1="210.43" x2="211.47" y1="939.88" y2="939.89"><stop offset="0" stop-color="#98d6fa"></stop><stop offset="1" stop-color="#47b0f1"></stop></linearGradient><linearGradient gradientUnits="objectBoundingBox" id="未命名的渐变_37-21" node-id="38" spreadMethod="pad" x1="193.33" x2="194.37" y1="939.37" y2="939.93"><stop offset="0" stop-color="#98d6fa"></stop><stop offset="1" stop-color="#47b0f1"></stop></linearGradient><linearGradient gradientUnits="objectBoundingBox" id="未命名的渐变_37-22" node-id="39" spreadMethod="pad" x1="211.92" x2="212.96" y1="939.18" y2="939.18"><stop offset="0" stop-color="#98d6fa"></stop><stop offset="1" stop-color="#47b0f1"></stop></linearGradient><linearGradient gradientUnits="objectBoundingBox" id="未命名的渐变_37-23" node-id="40" spreadMethod="pad" x1="211.9" x2="212.94" y1="938.46" y2="938.46"><stop offset="0" stop-color="#98d6fa"></stop><stop offset="1" stop-color="#47b0f1"></stop></linearGradient><linearGradient gradientUnits="objectBoundingBox" id="未命名的渐变_37-24" node-id="41" spreadMethod="pad" x1="210.29" x2="211.34" y1="937.35" y2="937.36"><stop offset="0" stop-color="#98d6fa"></stop><stop offset="1" stop-color="#47b0f1"></stop></linearGradient><linearGradient gradientUnits="objectBoundingBox" id="未命名的渐变_37-25" node-id="42" spreadMethod="pad" x1="192.44" x2="193.49" y1="936.84" y2="937.41"><stop offset="0" stop-color="#98d6fa"></stop><stop offset="1" stop-color="#47b0f1"></stop></linearGradient><linearGradient gradientUnits="objectBoundingBox" id="未命名的渐变_32" node-id="43" spreadMethod="pad" x1="212.68" x2="211.75" y1="932.06" y2="932.5"><stop offset="0" stop-color="#1d181c"></stop><stop offset="0.3" stop-color="#2c2422"></stop><stop offset="0.5" stop-color="#42352c"></stop><stop offset="0.7" stop-color="#57352c"></stop><stop offset="1" stop-color="#923629"></stop></linearGradient><linearGradient gradientUnits="objectBoundingBox" id="未命名的渐变_32-2" node-id="49" spreadMethod="pad" x1="209.23" x2="209.16" y1="932.01" y2="932.45"><stop offset="0" stop-color="#1d181c"></stop><stop offset="0.3" stop-color="#2c2422"></stop><stop offset="0.5" stop-color="#42352c"></stop><stop offset="0.7" stop-color="#57352c"></stop><stop offset="1" stop-color="#923629"></stop></linearGradient><linearGradient gradientUnits="objectBoundingBox" id="未命名的渐变_34" node-id="50" spreadMethod="pad" x1="209.59" x2="208.59" y1="932.2" y2="932.2"><stop offset="0" stop-color="#ffb859"></stop><stop offset="1" stop-color="#f97b61"></stop></linearGradient><linearGradient gradientUnits="objectBoundingBox" id="未命名的渐变_34-2" node-id="53" spreadMethod="pad" x1="212.37" x2="211.38" y1="932.15" y2="932.15"><stop offset="0" stop-color="#ffb859"></stop><stop offset="1" stop-color="#f97b61"></stop></linearGradient><linearGradient gradientUnits="objectBoundingBox" id="未命名的渐变_37-26" node-id="54" spreadMethod="pad" x1="197.38" x2="197.47" y1="933.09" y2="933.65"><stop offset="0" stop-color="#98d6fa"></stop><stop offset="1" stop-color="#47b0f1"></stop></linearGradient><linearGradient gradientUnits="objectBoundingBox" id="未命名的渐变_36" node-id="55" spreadMethod="pad" x1="210.6" x2="211.06" y1="932.56" y2="932.65"><stop offset="0" stop-color="#f97b61"></stop><stop offset="1" stop-color="#ffb859"></stop></linearGradient><linearGradient gradientUnits="objectBoundingBox" id="未命名的渐变_37-27" node-id="58" spreadMethod="pad" x1="219.13" x2="220.17" y1="933.41" y2="933.9"><stop offset="0" stop-color="#98d6fa"></stop><stop offset="1" stop-color="#47b0f1"></stop></linearGradient><mask height="30.51001" id="mask" maskUnits="userSpaceOnUse" node-id="59" width="24.399994" x="399.39" y="506.69"><path d="M 421.40 507.00 L 422.30 507.80 L 423.10 509.10 L 423.60 511.10 L 423.80 514.20 L 423.40 518.00 L 422.40 521.90 L 421.00 525.50 L 417.70 530.40 L 413.60 534.50 L 409.60 536.80 L 407.20 537.20 L 406.30 536.90 L 405.40 536.10 L 404.60 534.80 L 404.20 533.00 L 404.00 530.00 L 404.30 526.50 L 405.10 523.00 L 406.30 519.80 L 409.60 514.30 L 413.80 509.80 L 418.00 507.10 L 419.40 506.80 L 421.40 507.00 Z" fill="#ffffff" fill-rule="evenodd" id="path-30" node-id="61" stroke="none" target-height="30.400024" target-width="19.799988" target-x="404" target-y="506.8"></path></mask></defs><g node-id="458"><g node-id="459"><path d="M 0.00 0.00 L 1024.00 0.00 L 1024.00 1024.00 L 0.00 1024.00 Z" fill="#ffffff" fill-opacity="0" fill-rule="nonzero" group-id="1,2" id="矩形" node-id="65" stroke="none" target-height="1024" target-width="1024" target-x="0" target-y="0"></path><g node-id="460"><g node-id="465"><path d="M 76.80 581.80 L 72.00 559.40 L 67.80 535.60 L 64.20 506.80 L 62.30 480.30 L 62.10 458.20 L 62.40 447.00 L 63.20 435.80 L 64.40 424.60 L 66.10 413.40 L 68.20 402.50 L 71.00 391.90 L 73.40 384.00 L 76.20 376.30 L 79.30 368.90 L 82.80 361.80 L 86.70 354.80 L 91.00 348.20 L 95.70 341.90 L 100.90 335.90 L 106.50 330.30 L 112.60 325.10 L 119.20 320.30 L 126.40 315.90 L 132.30 312.90 L 138.70 310.10 L 145.40 307.60 L 152.70 305.40 L 160.40 303.50 L 178.10 300.10 L 194.90 297.30 L 210.70 295.10 L 226.70 293.30 L 256.00 290.80 L 277.20 289.70 L 333.40 287.30 L 356.00 285.50 L 366.40 284.30 L 376.70 282.60 L 386.60 280.50 L 396.00 278.00 L 402.90 275.70 L 409.70 273.00 L 416.30 270.00 L 422.80 266.50 L 428.90 262.70 L 435.10 258.40 L 441.10 253.50 L 464.00 232.30 L 478.40 220.40 L 490.80 211.80 L 496.90 208.20 L 502.50 205.40 L 507.70 203.20 L 513.00 201.40 L 518.20 200.10 L 528.20 198.70 L 538.70 198.50 L 546.80 199.00 L 575.60 201.60 L 582.90 201.80 L 590.30 201.50 L 597.80 200.60 L 605.20 199.20 L 612.70 197.40 L 620.20 195.20 L 634.80 189.80 L 652.30 181.60 L 662.10 176.40 L 680.00 165.80 L 708.70 147.10 L 721.40 140.90 L 730.30 137.30 L 743.60 132.90 L 759.10 128.90 L 776.30 126.10 L 785.10 125.30 L 794.30 125.10 L 803.80 125.30 L 818.10 126.90 L 832.70 130.20 L 839.80 132.50 L 847.00 135.30 L 854.30 138.60 L 861.50 142.50 L 868.40 146.90 L 875.30 151.90 L 882.20 157.70 L 889.00 164.20 L 894.10 169.60 L 904.10 182.10 L 913.90 197.00 L 922.50 213.10 L 926.70 222.20 L 930.80 232.10 L 938.20 253.20 L 944.60 276.50 L 947.60 289.50 L 950.40 303.50 L 951.90 326.90 L 954.30 374.00 L 955.10 412.60 L 954.60 442.10 L 953.90 456.60 L 952.70 470.50 L 949.70 493.80 L 948.00 503.30 L 943.80 520.90 L 941.10 529.40 L 938.10 537.40 L 934.90 544.90 L 931.30 551.80 L 928.10 557.30 L 924.60 562.30 L 921.00 567.00 L 917.10 571.30 L 907.60 580.30 L 903.20 585.10 L 899.80 589.70 L 897.10 594.00 L 894.80 598.80 L 893.20 603.30 L 892.20 607.60 L 891.80 611.70 L 891.90 616.00 L 892.40 620.00 L 893.40 624.00 L 894.90 627.80 L 898.90 635.00 L 904.30 641.60 L 908.50 645.70 L 913.10 649.40 L 918.10 652.80 L 923.30 655.80 L 928.70 658.40 L 934.10 660.60 L 939.70 662.40 L 945.10 663.80 L 953.50 665.30 L 956.00 666.20 L 958.00 667.40 L 959.50 668.90 L 960.70 670.60 L 961.60 673.10 L 962.00 676.00 L 961.80 679.40 L 961.00 683.40 L 957.90 691.30 L 955.50 695.90 L 952.30 701.00 L 947.80 707.30 L 942.40 714.10 L 935.80 721.30 L 928.90 728.20 L 921.10 735.20 L 912.30 742.40 L 903.30 749.20 L 893.60 755.80 L 883.10 762.30 L 875.00 766.80 L 858.00 775.10 L 843.70 781.10 L 836.30 783.70 L 826.40 786.80 L 810.80 791.10 L 790.70 796.10 L 769.10 800.90 L 743.80 806.00 L 717.40 810.90 L 687.90 815.70 L 657.50 820.10 L 624.90 824.20 L 602.90 826.60 L 556.90 830.60 L 509.90 833.40 L 485.90 834.20 L 461.90 834.60 L 438.00 834.50 L 414.00 834.00 L 390.10 832.90 L 366.50 831.30 L 343.20 829.10 L 325.70 827.10 L 308.60 824.60 L 291.90 821.90 L 275.50 818.70 L 259.10 815.20 L 243.20 811.20 L 227.90 806.80 L 213.00 802.00 L 204.40 798.00 L 196.20 793.60 L 188.40 788.80 L 181.00 783.70 L 173.80 778.20 L 167.00 772.40 L 160.50 766.30 L 154.40 759.90 L 146.60 751.00 L 139.40 741.80 L 132.80 732.30 L 126.60 722.50 L 120.80 712.60 L 115.60 702.60 L 110.70 692.40 L 102.20 672.40 L 96.80 657.60 L 92.20 643.60 L 88.20 629.90 L 82.20 606.10 L 76.80 581.80 Z" fill="#47b0f1" fill-opacity="0.05" fill-rule="nonzero" group-id="1,2,3,8" id="路径-58" node-id="67" stroke="none" target-height="709.5" target-width="899.9" target-x="62.1" target-y="125.1"></path></g><g node-id="466"><path d="M 158.00 329.00 L 161.10 330.60 L 162.30 331.80 L 163.80 334.70 L 164.00 336.50 L 163.70 339.50 L 163.00 341.30 L 161.80 342.80 L 160.30 344.00 L 158.50 344.70 L 156.50 345.00 L 77.50 345.00 L 75.50 344.70 L 73.70 344.00 L 72.20 342.80 L 71.00 341.30 L 70.30 339.50 L 70.00 337.50 L 70.30 334.50 L 71.00 332.70 L 72.20 331.20 L 73.70 330.00 L 75.50 329.30 L 77.50 329.00 L 109.00 329.00 L 110.90 328.70 L 112.50 328.10 L 113.90 327.00 L 115.00 325.70 L 115.70 324.10 L 116.00 322.00 L 115.70 320.10 L 115.10 318.50 L 114.00 317.10 L 112.70 316.00 L 111.10 315.30 L 109.20 315.00 L 106.00 315.00 L 104.30 314.30 L 101.70 312.20 L 100.20 309.30 L 100.00 306.50 L 100.30 304.50 L 101.00 302.70 L 102.20 301.20 L 103.70 300.00 L 105.50 299.30 L 107.50 299.00 L 186.50 299.00 L 188.50 299.30 L 190.30 300.00 L 191.80 301.20 L 193.00 302.70 L 193.70 304.50 L 194.00 307.50 L 193.70 309.50 L 193.00 311.30 L 191.80 312.80 L 190.30 314.00 L 188.50 314.70 L 186.50 315.00 L 155.00 315.00 L 153.10 315.30 L 151.50 315.90 L 150.10 317.00 L 149.00 318.30 L 148.30 319.90 L 148.00 321.80 L 148.30 323.90 L 148.90 325.50 L 150.00 326.90 L 151.30 328.00 L 152.90 328.70 L 154.80 329.00 L 158.00 329.00 Z" fill="url(#未命名的渐变_37)" fill-opacity="0.1" fill-rule="nonzero" group-id="1,2,3,9" id="形状结合" node-id="68" stroke="none" target-height="46" target-width="124" target-x="70" target-y="299"></path></g><g node-id="467"><path d="M 858.00 159.00 L 861.10 160.60 L 862.30 161.80 L 863.80 164.70 L 864.00 166.50 L 863.70 169.50 L 863.00 171.30 L 861.80 172.80 L 860.30 174.00 L 858.50 174.70 L 856.50 175.00 L 777.50 175.00 L 775.50 174.70 L 773.70 174.00 L 772.20 172.80 L 771.00 171.30 L 770.30 169.50 L 770.00 167.50 L 770.30 164.50 L 771.00 162.70 L 772.20 161.20 L 773.70 160.00 L 775.50 159.30 L 777.50 159.00 L 809.00 159.00 L 810.90 158.70 L 812.50 158.10 L 813.90 157.00 L 815.00 155.70 L 815.70 154.10 L 816.00 152.00 L 815.70 150.10 L 815.10 148.50 L 814.00 147.10 L 812.70 146.00 L 811.10 145.30 L 809.20 145.00 L 806.00 145.00 L 804.30 144.30 L 801.70 142.20 L 800.20 139.30 L 800.00 136.50 L 800.30 134.50 L 801.00 132.70 L 802.20 131.20 L 803.70 130.00 L 805.50 129.30 L 807.50 129.00 L 886.50 129.00 L 888.50 129.30 L 890.30 130.00 L 891.80 131.20 L 893.00 132.70 L 893.70 134.50 L 894.00 137.50 L 893.70 139.50 L 893.00 141.30 L 891.80 142.80 L 890.30 144.00 L 888.50 144.70 L 886.50 145.00 L 855.00 145.00 L 853.10 145.30 L 851.50 145.90 L 850.10 147.00 L 849.00 148.30 L 848.30 149.90 L 848.00 151.80 L 848.30 153.90 L 848.90 155.50 L 850.00 156.90 L 851.30 158.00 L 852.90 158.70 L 854.80 159.00 L 858.00 159.00 Z" fill="url(#未命名的渐变_37-2)" fill-opacity="0.1" fill-rule="nonzero" group-id="1,2,3,10" id="形状结合-2" node-id="69" stroke="none" target-height="46" target-width="124" target-x="770" target-y="129"></path></g><path d="M 514.50 712.00 L 547.40 712.20 L 579.20 712.90 L 610.10 714.00 L 640.90 715.50 L 670.40 717.30 L 698.60 719.50 L 726.80 722.20 L 753.30 725.20 L 778.10 728.40 L 802.90 732.10 L 825.60 735.90 L 846.30 740.00 L 859.80 740.30 L 872.70 741.10 L 885.10 742.20 L 897.50 743.80 L 909.10 745.70 L 920.00 747.90 L 930.80 750.50 L 940.60 753.40 L 949.40 756.50 L 958.20 760.10 L 965.70 763.80 L 972.20 767.60 L 976.90 770.80 L 980.80 774.10 L 984.10 777.30 L 986.80 780.60 L 989.10 784.20 L 990.70 787.80 L 991.70 791.30 L 992.00 795.00 L 991.70 798.50 L 990.80 802.00 L 989.30 805.50 L 987.10 809.00 L 984.60 812.20 L 981.50 815.30 L 977.70 818.50 L 973.30 821.70 L 967.20 825.40 L 960.00 829.00 L 951.80 832.60 L 943.30 835.70 L 934.00 838.50 L 923.80 841.20 L 913.50 843.50 L 902.40 845.40 L 890.60 847.10 L 863.20 854.20 L 847.50 857.80 L 848.00 864.00 L 847.70 868.40 L 846.90 872.70 L 845.60 877.00 L 843.80 881.20 L 841.30 885.60 L 835.40 893.40 L 827.30 901.40 L 822.40 905.30 L 816.20 909.80 L 809.20 914.10 L 801.40 918.50 L 792.60 922.80 L 784.00 926.60 L 764.50 933.90 L 742.80 940.40 L 719.50 946.00 L 706.80 948.40 L 690.00 951.20 L 672.40 953.60 L 653.80 955.50 L 635.20 956.90 L 615.90 957.70 L 596.00 958.00 L 565.00 957.30 L 550.20 956.50 L 521.10 953.80 L 507.10 952.00 L 480.70 947.60 L 467.60 944.90 L 443.60 938.90 L 421.50 931.80 L 411.30 927.90 L 401.90 924.00 L 393.30 919.90 L 384.60 915.20 L 377.00 910.50 L 370.20 905.80 L 364.40 901.10 L 359.80 896.80 L 355.80 892.50 L 352.50 888.30 L 349.80 884.10 L 347.60 879.90 L 319.60 877.50 L 293.20 874.90 L 268.30 872.00 L 243.40 868.70 L 220.40 865.10 L 199.20 861.40 L 178.00 857.20 L 159.00 852.80 L 142.00 848.40 L 129.10 844.60 L 117.70 840.90 L 107.70 837.10 L 98.80 833.50 L 91.40 830.00 L 85.10 826.50 L 79.80 823.20 L 71.50 816.90 L 68.40 813.70 L 66.00 810.60 L 64.20 807.70 L 63.00 804.80 L 62.30 801.90 L 62.00 799.00 L 62.20 796.20 L 63.00 793.30 L 64.10 790.50 L 65.90 787.60 L 68.20 784.60 L 71.20 781.50 L 74.80 778.40 L 84.30 772.00 L 90.40 768.60 L 106.10 761.50 L 115.80 757.80 L 126.80 754.10 L 139.20 750.40 L 155.60 746.00 L 174.00 741.70 L 194.50 737.50 L 215.00 733.80 L 237.30 730.20 L 261.40 726.90 L 285.50 723.90 L 311.20 721.30 L 338.30 718.80 L 393.70 715.10 L 423.30 713.80 L 483.20 712.20 L 514.50 712.00 Z" fill="url(#未命名的渐变_3)" fill-rule="nonzero" group-id="1,2,3" id="形状结合-3" node-id="70" stroke="none" target-height="246" target-width="930" target-x="62" target-y="712"></path><g node-id="468"><path d="M 686.60 226.70 L 685.00 222.90 L 683.00 219.70 L 680.60 216.80 L 677.80 214.20 L 674.80 212.00 L 671.40 210.10 L 664.30 207.50 L 660.50 206.70 L 656.70 206.30 L 649.20 206.60 L 655.10 203.70 L 658.40 202.60 L 661.90 201.80 L 668.80 201.10 L 672.30 201.30 L 675.60 201.80 L 678.70 202.80 L 681.70 204.20 L 684.30 206.10 L 686.60 208.50 L 688.90 206.20 L 691.60 204.30 L 694.50 202.90 L 697.60 202.00 L 700.90 201.40 L 704.40 201.20 L 711.40 201.90 L 714.80 202.70 L 721.20 205.10 L 724.00 206.70 L 716.60 206.40 L 709.00 207.60 L 701.80 210.30 L 698.50 212.20 L 695.40 214.40 L 692.60 216.90 L 690.20 219.80 L 688.20 223.00 L 686.60 226.60 Z" fill="url(#未命名的渐变_37-3)" fill-rule="nonzero" group-id="1,2,3,11" id="路径" node-id="72" stroke="none" target-height="25.59999" target-width="74.79999" target-x="649.2" target-y="201.1"></path><path d="M 770.00 214.10 L 768.90 211.50 L 765.80 207.20 L 763.90 205.50 L 761.00 203.50 L 757.90 201.90 L 754.50 200.80 L 751.00 200.10 L 747.50 199.90 L 744.10 200.20 L 747.10 198.60 L 750.50 197.40 L 754.10 196.60 L 757.70 196.30 L 760.10 196.50 L 764.50 197.50 L 768.40 199.80 L 770.00 201.50 L 771.60 199.90 L 775.50 197.60 L 779.90 196.60 L 782.40 196.40 L 786.00 196.70 L 789.60 197.40 L 793.00 198.70 L 796.00 200.30 L 792.50 200.00 L 789.10 200.20 L 785.60 200.90 L 782.20 202.00 L 779.00 203.60 L 776.10 205.60 L 773.60 208.00 L 771.60 210.80 L 770.00 214.10 Z" fill="url(#未命名的渐变_37-4)" fill-rule="nonzero" group-id="1,2,3,11" id="路径-2" node-id="73" stroke="none" target-height="17.800003" target-width="51.900024" target-x="744.1" target-y="196.3"></path><path d="M 735.20 179.60 L 734.10 177.00 L 731.10 172.80 L 729.10 171.00 L 726.20 169.00 L 723.10 167.50 L 719.70 166.30 L 716.20 165.70 L 712.70 165.50 L 709.20 165.80 L 712.30 164.20 L 715.70 162.90 L 719.20 162.20 L 722.90 161.90 L 725.30 162.00 L 729.70 163.10 L 733.60 165.40 L 735.20 167.10 L 736.90 165.40 L 740.70 163.20 L 745.20 162.10 L 747.60 162.00 L 751.20 162.20 L 754.80 163.00 L 758.20 164.20 L 761.20 165.80 L 757.80 165.60 L 754.30 165.80 L 750.80 166.50 L 747.40 167.60 L 744.30 169.10 L 741.40 171.10 L 738.90 173.50 L 736.80 176.40 L 735.20 179.60 Z" fill="url(#未命名的渐变_37-5)" fill-rule="nonzero" group-id="1,2,3,11" id="路径-3" node-id="74" stroke="none" target-height="17.700012" target-width="52" target-x="709.2" target-y="161.9"></path><path d="M 840.70 220.10 L 839.60 217.80 L 838.20 215.80 L 834.50 212.80 L 830.00 210.90 L 827.50 210.40 L 822.70 210.50 L 825.60 209.10 L 828.80 208.20 L 831.10 207.90 L 835.40 208.20 L 837.40 208.90 L 839.20 209.90 L 840.70 211.40 L 842.30 209.90 L 844.00 208.90 L 848.20 207.90 L 852.60 208.20 L 855.90 209.10 L 858.70 210.50 L 853.90 210.50 L 851.50 210.90 L 847.00 212.80 L 843.20 215.80 L 841.80 217.80 L 840.70 220.10 Z" fill="url(#未命名的渐变_37-6)" fill-rule="nonzero" group-id="1,2,3,11" id="路径-4" node-id="75" stroke="none" target-height="12.200012" target-width="36" target-x="822.7" target-y="207.9"></path></g><g node-id="469"><path d="M 54.20 676.40 L 45.20 672.80 L 37.80 670.50 L 31.70 669.30 L 26.70 669.00 L 22.60 669.50 L 19.20 670.50 L 16.50 672.20 L 14.20 674.30 L 12.30 677.20 L 10.90 680.70 L 10.00 685.30 L 9.70 691.00 L 10.20 698.00 L 11.70 703.70 L 13.50 708.00 L 15.60 711.10 L 17.90 713.40 L 20.40 715.00 L 27.20 723.90 L 32.40 731.50 L 36.10 738.00 L 38.60 743.70 L 40.10 748.50 L 41.40 756.90 L 42.60 761.10 L 45.40 766.40 L 47.20 768.80 L 49.40 770.90 L 51.90 772.70 L 54.90 774.30 L 58.00 775.40 L 61.60 776.10 L 65.80 776.30 L 70.00 776.00 L 74.80 775.20 L 85.30 772.40 L 89.70 771.90 L 93.70 772.20 L 97.40 773.10 L 100.80 774.80 L 104.10 777.10 L 107.30 780.30 L 110.30 784.40 L 113.10 789.70 L 115.80 796.20 L 118.20 804.30 L 122.90 809.90 L 128.10 815.10 L 133.70 819.70 L 139.90 823.80 L 146.60 827.50 L 154.00 830.70 L 162.00 833.40 L 170.70 835.50 L 180.10 837.20 L 190.50 838.20 L 201.80 838.60 L 214.00 838.30 L 227.40 837.20 L 237.40 835.80 L 245.30 834.00 L 251.30 831.90 L 255.80 829.70 L 259.20 827.30 L 261.50 824.80 L 263.10 822.10 L 263.90 819.30 L 264.00 816.10 L 263.40 812.50 L 261.80 808.40 L 259.10 803.70 L 255.00 798.10 L 249.20 791.60 L 241.20 784.10 L 230.80 775.30 L 217.40 765.20 L 204.80 760.40 L 194.80 757.10 L 178.30 752.70 L 176.00 751.40 L 174.00 749.50 L 172.20 746.90 L 170.70 743.50 L 169.50 739.00 L 168.80 733.30 L 168.20 722.40 L 167.30 719.10 L 165.70 716.00 L 163.50 713.00 L 160.50 710.30 L 156.70 707.60 L 151.70 705.20 L 139.50 700.60 L 134.80 698.10 L 131.30 695.50 L 128.80 692.70 L 127.10 689.90 L 126.20 686.80 L 125.90 683.50 L 126.40 679.80 L 123.00 675.30 L 119.60 671.90 L 116.30 669.50 L 113.00 667.80 L 109.70 666.90 L 106.20 666.70 L 102.60 667.10 L 98.70 668.30 L 94.60 670.30 L 84.80 676.90 L 80.10 679.50 L 75.70 681.10 L 71.60 682.00 L 67.90 682.20 L 64.30 681.70 L 60.80 680.60 L 57.50 678.90 L 54.20 676.40 Z" fill="url(#未命名的渐变_37-7)" fill-rule="nonzero" group-id="1,2,3,12" id="路径-61" node-id="77" stroke="none" target-height="171.89996" target-width="254.3" target-x="9.7" target-y="666.7"></path><path d="M 52.60 691.50 L 100.90 723.70 L 98.80 713.80 L 96.60 705.30 L 94.40 698.20 L 91.10 689.70 L 95.50 699.40 L 98.90 708.20 L 101.70 717.30 L 102.60 721.60 L 102.90 725.10 L 143.10 751.90 L 143.60 737.90 L 143.40 727.70 L 142.70 720.50 L 141.70 715.60 L 142.40 717.00 L 144.00 723.60 L 145.70 737.50 L 146.10 746.60 L 145.70 753.60 L 182.70 778.30 L 182.30 777.80 L 183.10 769.80 L 183.20 762.80 L 182.60 756.40 L 183.70 760.00 L 184.50 766.40 L 184.90 773.70 L 184.90 779.70 L 215.40 800.10 L 211.50 804.00 L 180.00 781.70 L 174.00 784.40 L 165.90 786.40 L 161.50 786.90 L 154.10 786.90 L 160.70 786.10 L 166.20 784.90 L 170.60 783.40 L 174.20 781.70 L 177.00 779.80 L 179.50 781.40 L 90.70 718.50 L 91.30 719.10 L 83.20 720.00 L 75.70 720.10 L 68.60 719.60 L 62.00 718.50 L 55.80 716.80 L 57.00 716.50 L 65.80 718.00 L 70.40 718.50 L 76.10 718.80 L 84.30 718.10 L 88.90 717.20 Z M 94.00 768.40 L 98.00 768.20 L 102.50 767.40 L 107.50 765.90 L 113.20 763.60 L 119.70 760.20 L 127.00 755.80 L 135.20 750.10 L 137.40 752.30 L 131.90 756.30 L 126.50 759.70 L 121.30 762.40 L 115.90 764.80 L 110.90 766.50 L 106.20 767.70 L 101.50 768.40 L 97.50 768.60 L 94.00 768.40 Z" fill="url(#未命名的渐变_13)" fill-rule="nonzero" group-id="1,2,3,12" id="形状结合-4" node-id="78" stroke="none" target-height="114.29999" target-width="162.79999" target-x="52.6" target-y="689.7"></path><path d="M 89.60 607.30 L 81.20 601.90 L 74.10 598.20 L 68.30 595.90 L 63.50 594.60 L 59.50 594.20 L 56.20 594.40 L 53.50 595.30 L 51.10 596.80 L 49.10 598.80 L 47.40 601.60 L 46.00 605.20 L 45.00 610.00 L 44.60 616.10 L 44.80 623.80 L 50.10 645.00 L 52.00 654.30 L 53.10 662.40 L 53.50 667.70 L 53.40 672.80 L 52.70 680.50 L 52.90 687.50 L 54.40 695.10 L 57.40 703.20 L 59.50 707.20 L 62.20 711.20 L 65.20 715.00 L 68.90 718.60 L 73.20 722.10 L 80.40 726.60 L 84.70 728.70 L 96.70 733.40 L 102.10 736.30 L 106.10 739.20 L 108.90 742.10 L 110.70 745.00 L 111.70 748.00 L 112.00 751.10 L 111.50 754.50 L 110.10 758.20 L 107.70 762.40 L 107.20 766.30 L 107.40 770.00 L 108.30 773.60 L 109.90 777.10 L 112.40 780.60 L 115.90 784.00 L 120.50 787.50 L 126.50 791.00 L 134.00 794.50 L 143.40 798.00 L 155.00 801.40 L 169.00 804.70 L 185.90 807.70 L 198.10 809.50 L 208.20 810.50 L 222.60 811.00 L 227.90 810.70 L 235.60 809.40 L 239.20 808.20 L 241.90 806.90 L 244.00 805.40 L 245.60 803.80 L 246.80 801.80 L 247.60 799.70 L 248.10 797.40 L 248.10 794.80 L 247.60 791.40 L 246.60 787.60 L 244.90 783.30 L 241.90 777.00 L 238.00 770.00 L 229.00 755.60 L 223.40 749.70 L 219.50 744.70 L 217.20 741.30 L 214.00 735.30 L 212.50 730.90 L 211.50 726.60 L 211.10 722.30 L 211.20 714.70 L 212.70 703.90 L 212.90 700.10 L 212.60 696.30 L 211.10 691.40 L 209.70 689.00 L 207.90 686.90 L 205.50 684.70 L 202.40 682.60 L 199.00 680.90 L 194.70 679.20 L 185.30 676.40 L 181.90 674.70 L 178.80 672.40 L 176.00 669.50 L 173.40 665.90 L 171.20 661.50 L 169.30 656.30 L 167.80 650.00 L 166.70 642.50 L 166.10 633.60 L 165.20 630.30 L 163.80 627.60 L 161.90 625.30 L 159.40 623.50 L 156.20 622.00 L 152.20 621.00 L 147.30 620.60 L 141.10 620.80 L 133.50 621.80 L 124.10 623.80 L 120.20 624.30 L 116.20 624.10 L 112.10 623.30 L 108.00 621.80 L 103.70 619.50 L 99.20 616.50 L 94.50 612.40 L 89.60 607.30 Z" fill="url(#未命名的渐变_37-8)" fill-rule="nonzero" group-id="1,2,3,12" id="路径-65" node-id="79" stroke="none" target-height="216.79999" target-width="203.5" target-x="44.6" target-y="594.2"></path><path d="M 74.90 624.70 L 110.40 669.80 L 112.10 665.10 L 113.30 660.40 L 113.90 655.70 L 114.10 650.90 L 113.70 646.10 L 112.70 641.00 L 115.50 650.00 L 116.10 653.60 L 116.20 657.40 L 115.70 661.80 L 115.00 664.80 L 112.10 672.00 L 142.10 710.20 L 144.90 705.70 L 147.10 701.00 L 148.90 695.80 L 150.20 690.00 L 151.00 683.60 L 151.30 676.40 L 152.00 682.20 L 151.90 686.40 L 151.50 691.60 L 150.50 696.90 L 149.10 702.50 L 147.70 706.10 L 144.10 712.70 L 170.80 746.50 L 173.00 742.50 L 175.50 736.10 L 176.30 732.40 L 176.60 728.40 L 177.10 734.60 L 176.90 738.00 L 175.30 744.00 L 172.70 749.00 L 212.00 799.00 L 205.80 799.00 L 167.80 748.50 L 159.00 751.60 L 150.20 753.20 L 145.90 753.40 L 141.90 753.10 L 138.80 752.40 L 134.00 750.70 L 138.90 751.60 L 143.80 751.80 L 149.00 751.30 L 154.30 750.20 L 159.90 748.40 L 165.70 745.70 L 136.80 707.30 L 137.30 708.20 L 130.00 710.40 L 122.90 712.10 L 115.90 713.30 L 109.40 713.90 L 103.10 713.90 L 97.70 713.40 L 94.20 712.80 L 89.00 710.90 L 92.70 712.00 L 97.30 712.60 L 102.60 712.70 L 109.00 712.20 L 116.60 710.90 L 125.50 708.70 L 136.00 705.40 L 135.50 705.50 L 103.40 662.70 L 103.50 663.20 L 97.40 663.20 L 91.80 662.60 L 86.70 661.30 L 82.00 659.30 L 77.60 656.80 L 73.50 653.60 L 69.70 649.70 L 70.20 649.70 L 71.50 650.40 L 78.00 654.90 L 81.50 656.80 L 85.40 658.40 L 93.60 660.30 L 101.80 660.70 Z" fill="url(#未命名的渐变_13-2)" fill-rule="nonzero" group-id="1,2,3,12" id="形状结合-5" node-id="80" stroke="none" target-height="174.29999" target-width="142.3" target-x="69.7" target-y="624.7"></path><path d="M 199.20 608.80 L 203.10 603.90 L 206.50 600.60 L 209.70 598.50 L 212.60 597.40 L 215.30 597.00 L 217.90 597.30 L 220.60 598.40 L 223.30 600.40 L 226.20 603.50 L 229.30 607.90 L 232.60 614.00 L 233.70 619.30 L 235.70 635.20 L 237.40 640.00 L 238.80 642.10 L 240.60 644.10 L 243.10 646.20 L 245.90 647.90 L 249.60 649.70 L 259.20 653.50 L 262.80 655.70 L 265.40 658.10 L 267.20 660.70 L 268.40 663.60 L 268.80 666.80 L 268.60 670.50 L 267.40 674.80 L 265.30 679.80 L 261.80 685.70 L 260.30 689.90 L 259.80 693.40 L 260.00 696.40 L 260.90 699.00 L 262.40 701.30 L 264.70 703.30 L 268.00 705.10 L 275.30 707.60 L 277.40 709.00 L 278.90 710.80 L 279.90 712.90 L 280.30 715.50 L 280.10 718.80 L 279.00 723.00 L 276.80 728.20 L 273.30 734.70 L 268.10 742.80 L 265.90 748.50 L 264.70 753.10 L 264.30 756.80 L 264.50 759.90 L 265.30 762.30 L 266.40 764.30 L 270.50 768.00 L 274.90 773.10 L 278.10 778.90 L 279.30 782.20 L 280.30 785.90 L 280.90 790.20 L 281.00 794.50 L 280.60 799.30 L 279.60 804.90 L 278.10 810.30 L 275.70 816.40 L 272.40 823.40 L 270.30 827.00 L 265.70 832.40 L 263.40 834.50 L 259.80 836.80 L 256.20 838.40 L 252.40 839.40 L 248.50 839.90 L 244.50 839.90 L 240.50 839.40 L 236.60 838.50 L 228.90 835.70 L 223.40 832.90 L 218.40 829.60 L 213.90 825.90 L 210.30 822.30 L 208.20 819.60 L 205.60 815.00 L 204.50 811.70 L 203.90 808.30 L 203.70 804.80 L 204.00 799.40 L 207.20 778.30 L 207.40 773.70 L 207.20 770.80 L 206.60 768.30 L 205.60 766.00 L 202.50 762.60 L 200.20 760.90 L 187.20 753.40 L 179.80 748.20 L 174.90 742.90 L 173.00 739.90 L 171.50 736.50 L 170.60 732.60 L 170.30 729.70 L 171.00 722.70 L 172.00 718.50 L 179.60 708.10 L 183.00 703.00 L 184.70 698.40 L 185.00 693.20 L 183.80 686.80 L 182.30 682.90 L 177.40 673.00 L 170.90 661.70 L 170.50 660.10 L 170.50 658.40 L 171.20 656.40 L 174.40 651.00 L 180.20 642.10 L 183.50 638.30 L 187.00 633.30 L 190.80 626.90 L 194.90 618.80 L 199.20 608.80 Z" fill="url(#未命名的渐变_37-9)" fill-rule="nonzero" group-id="1,2,3,12" id="路径-96" node-id="81" stroke="none" target-height="242.90002" target-width="110.7" target-x="170.3" target-y="597"></path><path d="M 216.10 638.50 L 227.50 695.40 L 233.00 686.90 L 237.40 679.40 L 240.90 672.80 L 244.60 664.50 L 240.90 674.40 L 237.00 683.00 L 232.60 691.40 L 230.10 695.10 L 228.00 697.80 L 237.40 745.20 L 247.60 735.60 L 254.70 728.30 L 259.30 722.70 L 262.10 718.50 L 260.00 722.80 L 258.00 725.80 L 249.40 736.80 L 243.20 743.60 L 238.00 748.20 L 246.70 791.80 L 246.70 791.30 L 252.90 786.10 L 258.00 781.30 L 262.00 776.30 L 260.30 779.60 L 256.30 784.80 L 251.50 790.20 L 247.10 794.40 L 254.30 830.40 L 248.90 830.40 L 242.40 792.30 L 236.20 790.00 L 229.10 785.70 L 225.60 782.90 L 220.40 777.80 L 225.70 781.80 L 230.40 784.80 L 234.50 786.90 L 238.30 788.20 L 241.70 788.90 L 242.30 791.80 L 224.00 684.50 L 223.90 685.40 L 217.60 680.20 L 212.20 675.00 L 207.60 669.70 L 203.70 664.20 L 200.50 658.60 L 201.50 659.20 L 206.70 666.60 L 209.60 670.20 L 213.50 674.40 L 219.70 679.70 L 223.60 682.30 Z M 191.00 722.10 L 193.90 724.80 L 197.70 727.40 L 202.30 729.90 L 208.00 732.30 L 214.90 734.50 L 223.20 736.50 L 233.00 738.30 L 233.00 741.40 L 226.30 740.30 L 220.10 738.90 L 214.50 737.20 L 209.00 735.00 L 204.20 732.70 L 200.10 730.30 L 196.30 727.40 L 193.30 724.70 L 191.00 722.10 Z" fill="url(#未命名的渐变_13-3)" fill-rule="nonzero" group-id="1,2,3,12" id="形状结合-6" node-id="82" stroke="none" target-height="191.90002" target-width="71.100006" target-x="191" target-y="638.5"></path></g><g node-id="470"><path d="M 938.40 787.50 L 939.00 780.20 L 938.80 774.20 L 937.90 769.00 L 936.50 764.80 L 934.50 761.20 L 932.10 758.30 L 929.10 755.80 L 925.50 753.90 L 921.20 752.50 L 916.00 751.60 L 921.00 751.40 L 925.50 751.60 L 929.70 752.30 L 933.60 753.30 L 937.10 754.70 L 940.60 756.50 L 943.70 758.70 L 946.50 761.20 L 949.00 764.00 L 951.20 767.30 L 952.90 770.70 L 954.30 774.30 L 955.40 778.40 L 956.10 782.70 L 956.40 787.50 L 938.40 787.50 Z" fill="url(#未命名的渐变_37-10)" fill-rule="nonzero" group-id="1,2,3,13" id="路径-38" node-id="84" stroke="none" target-height="36.099976" target-width="40.400024" target-x="916" target-y="751.4"></path><path d="M 950.10 787.60 L 951.30 780.50 L 951.70 774.10 L 951.40 768.20 L 950.60 762.80 L 949.10 757.80 L 947.10 753.20 L 944.40 749.00 L 941.20 745.10 L 937.30 741.40 L 932.70 738.00 L 937.90 739.70 L 947.20 743.90 L 951.40 746.40 L 955.40 749.40 L 959.00 752.80 L 963.80 758.90 L 965.90 762.60 L 969.50 771.00 L 972.30 781.40 L 973.40 787.60 L 965.60 788.00 L 950.10 787.60 Z" fill="url(#未命名的渐变_37-11)" fill-rule="nonzero" group-id="1,2,3,13" id="路径-39" node-id="85" stroke="none" target-height="50" target-width="40.700012" target-x="932.7" target-y="738"></path><path d="M 977.10 788.00 L 976.70 781.10 L 977.10 775.30 L 978.10 770.30 L 979.60 766.00 L 981.60 762.30 L 984.10 759.20 L 987.10 756.60 L 990.70 754.40 L 995.00 752.60 L 1000.00 751.40 L 990.20 751.40 L 986.90 751.70 L 980.20 753.10 L 977.00 754.40 L 973.80 756.20 L 970.50 758.50 L 967.50 761.30 L 964.40 764.90 L 961.30 769.50 L 958.60 774.40 L 955.80 780.50 L 953.00 788.00 L 968.30 787.70 L 977.10 788.00 Z" fill="url(#未命名的渐变_37-12)" fill-rule="nonzero" group-id="1,2,3,13" id="路径-40" node-id="86" stroke="none" target-height="36.599976" target-width="47" target-x="953" target-y="751.4"></path><path d="M 927.40 802.00 L 942.70 801.50 L 948.50 800.20 L 951.00 799.10 L 953.10 797.60 L 954.70 795.70 L 955.70 794.10 L 956.80 789.60 L 957.00 786.60 L 956.70 782.70 L 955.90 779.00 L 954.60 775.50 L 952.80 772.20 L 950.70 769.10 L 948.10 766.40 L 945.10 764.00 L 941.90 761.90 L 938.40 760.20 L 934.60 759.00 L 930.70 758.30 L 926.50 758.00 L 922.30 758.30 L 918.40 759.00 L 914.60 760.20 L 911.10 761.90 L 907.90 764.00 L 904.90 766.40 L 902.30 769.10 L 900.20 772.20 L 898.40 775.50 L 897.10 779.00 L 896.30 782.70 L 896.00 786.60 L 896.20 789.60 L 897.50 794.00 L 898.50 795.70 L 900.40 797.60 L 902.60 799.10 L 905.40 800.20 L 911.60 801.50 L 927.40 802.00 Z" fill="url(#未命名的渐变_37-13)" fill-rule="nonzero" group-id="1,2,3,13" id="椭圆形" node-id="87" stroke="none" target-height="44" target-width="61" target-x="896" target-y="758"></path><path d="M 960.60 802.00 L 971.10 801.60 L 975.30 800.20 L 977.60 798.10 L 978.30 796.70 L 979.00 792.60 L 978.70 789.40 L 977.80 786.40 L 976.40 783.70 L 974.50 781.30 L 972.30 779.20 L 969.60 777.40 L 966.70 776.10 L 963.50 775.30 L 960.00 775.00 L 956.50 775.30 L 953.30 776.10 L 950.40 777.40 L 947.70 779.20 L 945.50 781.20 L 943.60 783.70 L 942.20 786.40 L 941.30 789.40 L 941.00 792.60 L 941.20 794.90 L 941.80 796.70 L 942.60 798.10 L 945.10 800.20 L 949.70 801.60 L 960.60 802.00 Z" fill="url(#未命名的渐变_37-14)" fill-rule="nonzero" group-id="1,2,3,13" id="椭圆形备份-6" node-id="88" stroke="none" target-height="27" target-width="38" target-x="941" target-y="775"></path></g></g><g node-id="461"><path d="M 313.10 798.50 L 319.30 800.70 L 323.00 802.40 L 326.40 804.80 L 327.30 806.70 L 326.60 808.60 L 325.40 809.90 L 315.80 815.90 L 313.60 817.70 L 312.30 819.30 L 311.30 821.10 L 310.90 822.80 L 311.10 824.40 L 311.60 826.10 L 313.70 829.30 L 315.90 831.70 L 320.40 835.40 L 328.90 839.30 L 334.10 841.20 L 348.70 845.30 L 365.90 848.80 L 386.50 851.60 L 397.70 852.60 L 409.80 853.20 L 421.90 853.40 L 434.50 853.10 L 447.80 852.30 L 467.80 850.00 L 488.60 846.20 L 498.40 843.80 L 506.90 841.40 L 520.20 836.60 L 526.60 833.80 L 531.80 831.00 L 536.00 828.20 L 539.30 825.60 L 542.60 822.50 L 545.00 819.60 L 546.80 816.80 L 548.00 814.00 L 548.90 811.10 L 549.20 808.20 L 549.10 805.40 L 548.60 802.70 L 547.40 799.20 L 545.70 795.80 L 543.40 792.50 L 540.70 789.50 L 534.50 784.20 L 529.80 781.40 L 522.20 777.60 L 513.40 774.00 L 502.10 769.90 L 489.90 766.10 L 475.50 762.30 L 465.60 760.10 L 443.50 756.20 L 432.10 754.60 L 420.10 753.40 L 407.50 752.60 L 394.90 752.20 L 381.90 752.40 L 368.50 753.00 L 356.50 754.00 L 337.40 756.30 L 321.50 759.30 L 315.60 760.80 L 305.40 764.30 L 302.00 765.90 L 298.90 767.80 L 296.90 769.50 L 294.20 773.60 L 292.20 778.60 L 291.80 781.10 L 291.90 783.40 L 292.60 785.70 L 293.80 787.90 L 295.90 790.10 L 298.90 792.40 L 302.30 794.30 L 306.90 796.30 L 313.10 798.50 Z" fill="url(#未命名的渐变_19)" fill-opacity="0.4" fill-rule="nonzero" group-id="1,2,4" id="路径-5" node-id="89" stroke="none" target-height="101.20001" target-width="257.40002" target-x="291.8" target-y="752.2"></path></g><path d="M 777.20 747.10 L 547.90 747.10 L 543.70 746.80 L 539.60 746.00 L 535.70 744.70 L 532.00 742.90 L 528.60 740.60 L 525.40 737.90 L 522.60 734.70 L 520.30 731.30 L 518.50 727.60 L 517.20 723.70 L 516.30 719.60 L 516.10 715.40 L 516.10 402.90 L 516.30 398.70 L 517.20 394.70 L 518.50 390.80 L 520.30 387.10 L 522.60 383.60 L 525.40 380.50 L 528.60 377.70 L 532.00 375.40 L 535.70 373.60 L 539.60 372.30 L 543.70 371.50 L 547.90 371.20 L 777.20 371.20 L 781.40 371.50 L 785.40 372.30 L 789.40 373.60 L 793.10 375.40 L 796.50 377.70 L 799.70 380.50 L 802.40 383.60 L 804.70 387.10 L 806.60 390.80 L 807.90 394.70 L 808.70 398.70 L 809.00 402.90 L 809.00 715.40 L 808.70 719.60 L 807.90 723.70 L 806.60 727.60 L 804.70 731.30 L 802.40 734.70 L 799.70 737.90 L 796.50 740.60 L 793.10 742.90 L 789.40 744.70 L 785.40 746.10 L 781.40 746.80 L 777.20 747.10 Z" fill="url(#未命名的渐变_37-15)" fill-rule="nonzero" group-id="1,2" id="路径-6" node-id="90" stroke="none" target-height="375.89996" target-width="292.90002" target-x="516.1" target-y="371.2"></path><path d="M 763.20 755.90 L 544.20 755.90 L 540.00 755.70 L 536.00 754.80 L 532.10 753.50 L 528.40 751.70 L 524.90 749.40 L 521.80 746.60 L 519.00 743.40 L 516.70 740.00 L 514.90 736.30 L 513.60 732.40 L 512.80 728.30 L 512.50 724.10 L 512.50 415.40 L 512.80 411.20 L 513.60 407.20 L 514.90 403.20 L 516.70 399.50 L 519.00 396.10 L 521.80 392.90 L 524.90 390.10 L 528.40 387.90 L 532.10 386.00 L 536.00 384.70 L 540.00 383.90 L 544.20 383.60 L 763.20 383.60 L 767.40 383.90 L 771.40 384.70 L 775.30 386.00 L 779.00 387.90 L 782.50 390.10 L 785.60 392.90 L 788.40 396.10 L 790.70 399.50 L 792.50 403.20 L 793.80 407.20 L 794.60 411.20 L 794.90 415.40 L 794.90 724.20 L 794.60 728.50 L 793.80 732.60 L 792.40 736.50 L 790.60 740.20 L 788.30 743.50 L 785.60 746.60 L 782.60 749.30 L 779.20 751.60 L 775.50 753.40 L 771.70 754.80 L 767.60 755.60 L 763.20 755.90 Z" fill="url(#未命名的渐变_37-16)" fill-rule="nonzero" group-id="1,2" id="路径-7" node-id="91" stroke="none" target-height="372.30002" target-width="282.40002" target-x="512.5" target-y="383.6"></path><path d="M 760.40 717.10 L 550.50 717.10 L 548.30 716.50 L 546.70 714.90 L 546.10 712.70 L 546.10 412.80 L 546.70 410.50 L 547.40 409.60 L 549.40 408.40 L 760.40 408.30 L 762.60 408.90 L 764.30 410.50 L 764.90 412.80 L 764.90 712.70 L 764.70 713.90 L 763.60 715.80 L 761.60 716.90 L 760.40 717.10 Z" fill="#98d6fa" fill-rule="evenodd" group-id="1,2" id="路径-8" node-id="92" stroke="none" target-height="308.8" target-width="218.80005" target-x="546.1" target-y="408.3"></path><path d="M 644.40 715.40 L 631.00 714.20 L 609.10 711.60 L 596.00 709.60 L 581.00 706.80 L 560.00 702.10 L 548.80 699.10 L 526.30 692.10 L 514.90 687.90 L 503.60 683.20 L 492.40 678.10 L 481.40 672.40 L 473.40 667.80 L 465.60 662.80 L 458.10 657.60 L 450.80 652.00 L 449.80 650.90 L 449.20 649.70 L 449.00 648.30 L 449.20 646.90 L 449.80 645.60 L 450.70 644.60 L 451.90 643.80 L 465.30 641.50 L 470.80 639.90 L 476.00 638.00 L 480.90 635.70 L 486.80 632.30 L 492.40 628.50 L 497.50 624.20 L 502.40 619.40 L 506.80 614.20 L 511.00 608.70 L 514.80 602.80 L 518.40 596.40 L 522.70 587.70 L 526.50 578.50 L 529.90 568.80 L 532.80 558.90 L 535.30 548.70 L 537.50 538.40 L 540.80 517.50 L 543.30 491.80 L 544.20 477.20 L 544.80 450.30 L 544.70 413.70 L 544.90 412.20 L 546.10 409.90 L 548.30 408.50 L 549.70 408.30 L 758.30 408.30 L 760.70 409.00 L 762.50 410.70 L 762.90 411.80 L 763.10 413.20 L 752.20 611.70 L 751.40 613.80 L 750.30 615.80 L 668.40 704.70 L 665.60 706.20 L 653.20 712.00 L 644.40 715.40 Z" fill="#ffffff" fill-rule="nonzero" group-id="1,2" id="路径-9" node-id="93" stroke="none" target-height="307.10004" target-width="314.09998" target-x="449" target-y="408.3"></path><path d="M 674.10 646.50 L 683.90 646.60 L 690.30 646.10 L 698.10 644.90 L 709.00 642.10 L 715.10 639.90 L 721.10 637.20 L 727.30 633.90 L 733.70 629.80 L 743.00 622.50 L 752.50 613.00 L 749.50 623.80 L 747.10 630.10 L 741.10 642.50 L 737.20 649.10 L 728.50 661.90 L 718.10 674.60 L 712.30 680.50 L 706.20 686.30 L 699.70 691.70 L 692.90 696.70 L 685.80 701.20 L 674.70 707.00 L 662.90 711.40 L 656.80 713.10 L 650.70 714.30 L 644.30 715.00 L 637.80 715.40 L 643.00 712.40 L 647.50 709.40 L 651.40 706.20 L 654.70 703.00 L 660.50 695.80 L 664.60 688.60 L 666.70 683.50 L 668.30 678.50 L 670.10 668.80 L 670.70 660.00 L 670.40 648.30 L 671.50 647.10 L 674.10 646.50 Z" fill="url(#未命名的渐变_37-17)" fill-rule="nonzero" group-id="1,2" id="路径-10" node-id="94" stroke="none" target-height="102.400024" target-width="114.70001" target-x="637.8" target-y="613"></path><g node-id="462"><path d="M 594.90 454.20 L 730.10 454.20 L 731.30 454.40 L 732.20 455.10 L 732.90 456.00 L 733.10 457.20 L 732.90 462.90 L 732.20 463.90 L 731.30 464.50 L 730.10 464.80 L 594.90 464.80 L 593.80 464.50 L 592.80 463.90 L 592.20 462.90 L 591.90 461.80 L 592.20 456.00 L 592.80 455.10 L 593.80 454.40 L 594.90 454.20 Z" fill="url(#未命名的渐变_37-18)" fill-rule="nonzero" group-id="1,2,5" id="矩形-2" node-id="96" stroke="none" target-height="10.599976" target-width="141.19995" target-x="591.9" target-y="454.2"></path><path d="M 591.40 489.50 L 726.60 489.50 L 727.80 489.70 L 728.70 490.30 L 729.40 491.30 L 729.60 492.50 L 729.40 498.20 L 728.70 499.20 L 727.80 499.80 L 726.60 500.10 L 591.40 500.10 L 590.20 499.80 L 589.30 499.20 L 588.60 498.20 L 588.40 497.10 L 588.60 491.30 L 589.30 490.30 L 590.20 489.70 L 591.40 489.50 Z" fill="url(#未命名的渐变_37-19)" fill-rule="nonzero" group-id="1,2,5" id="矩形备份" node-id="97" stroke="none" target-height="10.600006" target-width="141.19995" target-x="588.4" target-y="489.5"></path><path d="M 587.90 524.80 L 652.50 524.80 L 653.60 525.00 L 654.60 525.60 L 655.20 526.60 L 655.50 527.80 L 655.20 533.50 L 654.60 534.50 L 653.60 535.10 L 652.50 535.40 L 587.90 535.40 L 586.70 535.10 L 585.80 534.50 L 585.10 533.50 L 584.90 532.40 L 585.10 526.60 L 585.80 525.60 L 586.70 525.00 L 587.90 524.80 Z" fill="url(#未命名的渐变_37-20)" fill-rule="nonzero" group-id="1,2,5" id="矩形备份-2" node-id="98" stroke="none" target-height="10.600037" target-width="70.599976" target-x="584.9" target-y="524.8"></path><path d="M 669.10 524.80 L 674.80 525.00 L 675.80 525.60 L 676.40 526.60 L 676.70 532.40 L 676.40 533.50 L 675.80 534.50 L 674.80 535.10 L 673.70 535.40 L 667.90 535.10 L 666.90 534.50 L 666.30 533.50 L 666.10 532.40 L 666.30 526.60 L 666.90 525.60 L 667.90 525.00 L 669.10 524.80 Z" fill="url(#未命名的渐变_37-21)" fill-rule="nonzero" group-id="1,2,5" id="矩形备份-3" node-id="99" stroke="none" target-height="10.600037" target-width="10.600037" target-x="666.1" target-y="524.8"></path><path d="M 582.80 557.70 L 717.90 562.40 L 719.10 562.70 L 720.00 563.40 L 720.60 564.30 L 720.60 570.10 L 720.40 571.30 L 719.70 572.20 L 718.70 572.80 L 717.50 573.00 L 582.40 568.30 L 581.30 568.00 L 580.40 567.30 L 579.70 566.30 L 579.60 565.20 L 580.00 559.50 L 580.70 558.50 L 581.70 557.90 L 582.80 557.70 Z" fill="url(#未命名的渐变_37-22)" fill-rule="nonzero" group-id="1,2,5" id="矩形备份-7" node-id="100" stroke="none" target-height="15.299988" target-width="141" target-x="579.6" target-y="557.7"></path><path d="M 572.50 590.70 L 707.40 600.10 L 708.50 600.40 L 709.40 601.10 L 710.00 602.10 L 709.80 607.90 L 709.50 609.00 L 708.80 609.90 L 707.80 610.50 L 706.60 610.60 L 571.80 601.20 L 570.70 600.90 L 569.70 600.20 L 569.10 599.20 L 569.00 598.00 L 569.60 592.30 L 570.40 591.40 L 571.30 590.80 L 572.50 590.70 Z" fill="url(#未命名的渐变_37-23)" fill-rule="nonzero" group-id="1,2,5" id="矩形备份-6" node-id="101" stroke="none" target-height="19.899963" target-width="141" target-x="569" target-y="590.7"></path><path d="M 560.60 625.50 L 624.70 633.30 L 625.80 633.70 L 626.70 634.50 L 627.20 635.50 L 627.30 636.70 L 626.40 642.40 L 625.60 643.20 L 624.60 643.70 L 623.40 643.80 L 559.30 636.00 L 558.20 635.60 L 557.30 634.90 L 556.80 633.90 L 556.70 632.70 L 557.60 627.00 L 558.40 626.10 L 559.40 625.60 L 560.60 625.50 Z" fill="url(#未命名的渐变_37-24)" fill-rule="nonzero" group-id="1,2,5" id="矩形备份-5" node-id="102" stroke="none" target-height="18.299988" target-width="70.599976" target-x="556.7" target-y="625.5"></path><path d="M 641.20 635.40 L 646.90 636.30 L 647.70 637.00 L 648.30 638.10 L 647.80 643.80 L 647.40 644.90 L 646.70 645.80 L 645.60 646.30 L 644.50 646.40 L 638.80 645.50 L 637.90 644.70 L 637.40 643.70 L 637.30 642.50 L 638.20 636.90 L 639.00 636.00 L 640.00 635.40 L 641.20 635.40 Z" fill="url(#未命名的渐变_37-25)" fill-rule="nonzero" group-id="1,2,5" id="矩形备份-4" node-id="103" stroke="none" target-height="11" target-width="11" target-x="637.3" target-y="635.4"></path></g><g node-id="463"><path d="M 611.40 383.60 L 703.10 383.60 L 703.10 415.40 L 611.40 415.40 Z" fill="#64afde" fill-rule="nonzero" group-id="1,2,6" id="矩形-3" node-id="105" stroke="none" target-height="31.799988" target-width="91.69995" target-x="611.4" target-y="383.6"></path><path d="M 618.40 371.20 L 710.20 371.20 L 703.10 383.60 L 611.40 383.60 L 618.40 371.20 Z" fill="#64afde" fill-rule="evenodd" group-id="1,2,6" id="矩形-4" node-id="106" stroke="none" target-height="12.399994" target-width="98.79999" target-x="611.4" target-y="371.2"></path><path d="M 660.80 343.00 L 663.70 343.30 L 666.30 344.00 L 668.80 345.20 L 671.00 346.70 L 672.90 348.60 L 674.50 350.90 L 675.60 353.30 L 676.40 356.00 L 676.60 358.90 L 676.40 361.80 L 675.60 364.40 L 674.50 366.90 L 672.90 369.10 L 671.00 371.00 L 668.80 372.60 L 666.30 373.80 L 663.70 374.50 L 660.80 374.80 L 657.90 374.50 L 655.20 373.80 L 652.70 372.60 L 650.50 371.00 L 648.60 369.10 L 647.00 366.90 L 645.90 364.40 L 645.10 361.80 L 644.90 358.90 L 645.10 356.00 L 645.90 353.30 L 647.00 350.90 L 648.60 348.60 L 650.50 346.70 L 652.70 345.20 L 655.20 344.00 L 657.90 343.30 L 660.80 343.00 Z M 660.80 350.10 L 657.40 350.70 L 654.50 352.60 L 652.60 355.50 L 651.90 358.90 L 652.60 362.30 L 654.50 365.10 L 657.40 367.10 L 660.70 367.70 L 664.10 367.00 L 667.00 365.10 L 668.90 362.30 L 669.60 358.90 L 668.90 355.50 L 667.00 352.60 L 664.10 350.70 L 660.80 350.10 Z" fill="#64afde" fill-rule="evenodd" group-id="1,2,6" id="形状结合-7" node-id="107" stroke="none" target-height="31.799988" target-width="31.699951" target-x="644.9" target-y="343"></path></g><g node-id="464"><path d="M 360.20 794.50 L 354.70 799.00 L 353.40 801.30 L 353.30 802.80 L 353.70 804.90 L 355.60 808.90 L 357.10 810.60 L 358.60 811.70 L 375.60 817.80 L 384.80 820.00 L 387.80 820.20 L 391.20 819.80 L 392.30 819.30 L 393.30 818.20 L 393.80 816.90 L 393.70 815.40 L 393.20 813.90 L 390.70 810.30 L 386.70 807.00 L 377.20 801.80 L 363.10 795.30 Z" fill="#333333" fill-rule="nonzero" group-id="1,2,7" id="路径-11" node-id="109" stroke="none" target-height="25.700012" target-width="40.5" target-x="353.3" target-y="794.5"></path><path d="M 438.30 739.70 L 437.90 746.80 L 438.60 749.20 L 439.60 750.40 L 441.40 751.50 L 445.80 752.90 L 448.00 753.00 L 449.80 752.50 L 465.80 744.30 L 473.70 739.00 L 475.90 737.00 L 478.00 734.30 L 478.30 733.10 L 478.20 731.60 L 477.50 730.40 L 476.40 729.40 L 474.90 728.80 L 470.60 728.20 L 465.40 728.80 L 455.20 732.30 L 440.90 738.10 Z" fill="#333333" fill-rule="nonzero" group-id="1,2,7" id="路径-12" node-id="110" stroke="none" target-height="24.799988" target-width="40.399994" target-x="437.9" target-y="728.2"></path><path d="M 451.00 734.20 L 451.00 722.90 L 450.10 702.80 L 449.10 693.20 L 446.50 677.20 L 444.80 669.70 L 442.90 663.60 L 441.00 658.70 L 439.10 655.10 L 437.40 652.30 L 435.70 650.40 L 430.00 645.00 L 425.60 641.50 L 420.90 638.40 L 416.40 635.80 L 407.80 631.80 L 399.10 628.80 L 358.00 649.10 L 379.70 659.20 L 392.80 665.90 L 406.50 673.50 L 419.20 681.60 L 420.50 691.40 L 421.90 698.40 L 423.70 704.80 L 429.30 720.00 L 431.70 725.40 L 438.60 739.00 L 439.20 739.90 L 440.10 740.60 L 441.30 740.90 L 443.40 740.90 L 445.70 740.40 L 447.90 739.40 L 449.60 738.00 L 450.50 736.80 L 451.00 735.60 L 451.00 734.20 Z" fill="url(#未命名的渐变_32)" fill-rule="nonzero" group-id="1,2,7" id="路径-13" node-id="111" stroke="none" target-height="112.10004" target-width="93" target-x="358" target-y="628.8"></path><path d="M 390.00 658.30 L 390.40 674.70 L 389.90 688.20 L 388.90 700.20 L 385.40 732.20 L 384.10 740.40 L 380.80 757.40 L 371.00 799.60 L 370.40 801.30 L 369.60 802.50 L 368.60 803.40 L 365.90 804.20 L 364.40 804.20 L 362.10 803.70 L 359.80 802.70 L 357.80 801.20 L 356.30 799.40 L 355.20 796.60 L 355.80 762.20 L 355.30 734.50 L 352.90 702.20 L 350.00 640.50 L 387.80 635.80 Z" fill="url(#未命名的渐变_32-2)" fill-rule="nonzero" group-id="1,2,7" id="路径-14" node-id="112" stroke="none" target-height="168.40002" target-width="40.399994" target-x="350" target-y="635.8"></path><path d="M 365.80 502.10 L 368.40 502.60 L 370.80 503.60 L 373.00 505.00 L 375.00 506.80 L 376.90 509.60 L 376.80 509.10 L 377.40 509.60 L 378.00 510.70 L 378.40 514.00 L 379.30 514.10 L 380.20 514.90 L 380.70 516.00 L 381.00 517.50 L 380.80 519.00 L 380.20 520.40 L 379.50 521.00 L 377.10 521.80 L 374.00 526.70 L 371.00 529.80 L 371.00 535.90 L 359.00 536.00 L 359.00 528.90 L 356.50 526.00 L 355.30 523.90 L 354.30 521.70 L 354.60 521.70 L 352.90 521.60 L 350.90 520.50 L 350.20 519.10 L 350.00 517.50 L 350.30 515.90 L 351.50 514.10 L 352.90 514.10 L 353.40 510.40 L 354.50 508.00 L 356.00 505.80 L 357.30 504.50 L 358.80 503.50 L 362.20 502.20 L 365.80 502.10 Z" fill="#ebb0b0" fill-rule="nonzero" group-id="1,2,7" id="形状结合-8" node-id="113" stroke="none" target-height="33.899994" target-width="31" target-x="350" target-y="502.1"></path><path d="M 377.60 515.00 L 379.00 513.20 L 380.10 510.60 L 380.80 507.80 L 381.00 504.60 L 380.40 500.50 L 378.60 497.10 L 377.20 495.70 L 374.60 494.00 L 373.40 493.60 L 370.20 493.30 L 367.20 493.80 L 364.30 491.90 L 361.40 491.00 L 358.50 491.30 L 354.90 492.30 L 353.40 493.00 L 350.10 496.20 L 348.20 499.00 L 346.90 502.20 L 346.10 505.50 L 346.00 508.10 L 346.40 510.30 L 347.20 512.30 L 350.70 518.00 L 352.50 516.10 L 355.10 511.30 L 357.50 509.00 L 360.20 507.00 L 363.20 505.50 L 368.80 505.00 L 371.70 505.60 L 373.90 507.20 L 376.10 510.50 Z" fill="#131322" fill-rule="nonzero" group-id="1,2,7" id="路径-15" node-id="114" stroke="none" target-height="27" target-width="35" target-x="346" target-y="491"></path><path d="M 386.50 447.30 L 385.30 443.10 L 384.70 438.90 L 384.70 434.50 L 385.60 432.90 L 386.00 432.70 L 386.20 433.10 L 386.30 434.30 L 388.70 431.80 L 390.10 431.10 L 391.70 430.80 L 393.80 431.10 L 395.20 431.60 L 398.90 434.40 L 399.80 439.30 L 399.80 442.30 L 399.20 445.40 L 398.50 447.40 L 396.00 450.80 L 394.20 451.70 L 392.40 451.90 L 390.70 451.30 L 388.70 449.90 L 386.50 447.30 Z" fill="#efba9e" fill-rule="nonzero" group-id="1,2,7" id="路径-109" node-id="115" stroke="none" target-height="21.100006" target-width="15.099976" target-x="384.7" target-y="430.8"></path><path d="M 368.00 539.40 L 371.90 532.60 L 376.40 521.80 L 380.10 509.00 L 381.80 501.90 L 384.60 483.70 L 385.50 473.90 L 386.10 462.60 L 386.20 449.70 L 386.80 447.30 L 388.50 444.20 L 389.70 443.10 L 392.30 441.90 L 394.40 441.60 L 396.60 441.80 L 400.50 443.10 L 404.60 474.20 L 406.40 492.80 L 407.40 512.10 L 407.50 521.50 L 407.30 529.90 L 406.10 540.20 L 405.30 544.30 L 404.00 548.20 L 402.60 551.00 L 401.00 553.00" fill="url(#未命名的渐变_34)" fill-rule="nonzero" group-id="1,2,7" id="路径-16" node-id="116" stroke="none" target-height="111.399994" target-width="39.5" target-x="368" target-y="441.6"></path><path d="M 358.20 531.00 L 362.60 532.90 L 365.80 533.50 L 368.10 533.40 L 369.80 532.70 L 371.00 531.30 L 376.90 531.40 L 380.20 531.80 L 383.60 532.50 L 389.80 534.80 L 394.70 538.00 L 396.90 540.00 L 399.10 542.60 L 401.00 545.60 L 402.60 551.10 L 405.60 566.20 L 407.60 583.90 L 408.20 602.00 L 408.00 610.40 L 406.90 620.70 L 405.10 628.30 L 403.90 631.40 L 400.70 636.40 L 397.90 639.30 L 394.80 641.70 L 391.30 643.80 L 387.50 645.40 L 383.30 646.70 L 378.80 647.70 L 371.90 648.60 L 364.40 648.90 L 349.00 648.20 L 345.50 642.80 L 340.50 632.30 L 337.60 624.50 L 332.40 607.50 L 330.30 598.60 L 328.60 589.90 L 327.40 581.30 L 326.90 573.70 L 326.90 568.70 L 327.30 564.50 L 328.00 561.00 L 329.90 555.80 L 332.20 551.10 L 335.10 546.80 L 338.50 542.90 L 342.40 539.40 L 347.00 536.20 L 352.20 533.40 L 358.20 531.00 Z" fill="url(#未命名的渐变_34-2)" fill-rule="nonzero" group-id="1,2,7" id="路径-2-2" node-id="117" stroke="none" target-height="117.900024" target-width="81.30002" target-x="326.9" target-y="531"></path><path d="M 398.00 581.00 L 392.30 578.10 L 390.90 576.70 L 389.90 575.00 L 389.40 573.00 L 385.50 540.90 L 385.60 539.80 L 386.10 538.80 L 386.90 538.00 L 388.10 537.60 L 390.50 538.20 L 391.90 539.20 L 392.80 540.60 L 393.30 542.30 L 398.00 581.00 Z" fill="url(#未命名的渐变_37-26)" fill-rule="nonzero" group-id="1,2,7" id="路径-17" node-id="118" stroke="none" target-height="43.400024" target-width="12.5" target-x="385.5" target-y="537.6"></path><path d="M 380.90 561.60 L 382.10 557.40 L 383.90 553.50 L 386.30 549.80 L 387.90 548.90 L 388.30 549.00 L 388.40 549.50 L 387.80 550.50 L 391.10 549.70 L 392.70 549.90 L 394.20 550.50 L 395.80 551.90 L 396.70 553.10 L 398.30 557.40 L 396.40 562.10 L 394.70 564.60 L 392.60 566.80 L 390.90 568.10 L 386.90 569.60 L 384.90 569.40 L 383.30 568.60 L 382.10 567.10 L 381.30 564.90 L 380.90 561.60 Z" fill="#efba9e" fill-rule="nonzero" group-id="1,2,7" id="路径-109-2" node-id="119" stroke="none" target-height="20.699951" target-width="17.399994" target-x="380.9" target-y="548.9"></path><path d="M 341.20 553.30 L 344.60 555.20 L 348.50 559.00 L 351.60 564.30 L 352.90 567.40 L 355.20 576.30 L 355.80 581.30 L 356.00 587.40 L 355.90 594.70 L 382.00 560.40 L 384.40 561.40 L 386.10 562.50 L 387.20 563.70 L 388.60 566.80 L 388.90 568.50 L 388.30 573.90 L 387.00 579.00 L 370.00 616.20 L 368.20 618.90 L 366.40 620.90 L 364.60 622.30 L 360.60 624.20 L 355.80 624.80 L 349.00 623.90 L 346.80 623.20 L 344.40 621.80 L 340.20 618.00 L 338.50 615.80 L 332.60 605.70 L 328.90 597.10 L 327.50 592.30 L 325.60 581.70 L 325.10 575.60 L 325.10 566.70 L 326.00 561.90 L 327.00 559.30 L 328.50 556.70 L 329.80 555.20 L 331.40 554.00 L 333.30 553.10 L 335.40 552.60 L 338.00 552.70 L 341.20 553.30 Z" fill="url(#未命名的渐变_36)" fill-rule="nonzero" group-id="1,2,7" id="路径-18" node-id="120" stroke="none" target-height="72.20001" target-width="63.799988" target-x="325.1" target-y="552.6"></path><path d="M 406.40 507.00 L 394.90 526.20 L 383.70 533.00 L 383.20 534.80 L 383.10 536.60 L 383.50 538.40 L 384.40 540.00 L 385.40 541.00 L 386.40 541.70 L 389.30 542.70 L 400.60 537.10 L 421.50 536.90 Z" fill="url(#未命名的渐变_37-27)" fill-rule="nonzero" group-id="1,2,7" id="_Path_" node-id="121" stroke="none" target-height="35.700012" target-width="38.399994" target-x="383.1" target-y="507"></path><g node-id="471"><g node-id="472"><path d="M 406.40 507.00 L 405.40 507.80 L 404.70 509.10 L 404.20 511.10 L 404.00 514.20 L 404.40 518.00 L 405.30 521.90 L 406.80 525.50 L 408.30 528.00 L 412.10 532.60 L 416.30 535.90 L 419.50 537.20 L 421.50 536.90 L 422.40 536.10 L 423.10 534.80 L 423.60 533.00 L 423.80 530.00 L 423.40 526.50 L 422.60 523.00 L 421.50 519.80 L 418.10 514.30 L 413.90 509.80 L 409.80 507.10 L 408.40 506.80 L 406.50 507.00 Z" fill="#98d6fa" fill-rule="evenodd" group-id="1,2,7,14,15" id="path-30-2" node-id="124" stroke="none" target-height="30.400024" target-width="19.799988" target-x="404" target-y="506.8"></path></g><path d="M 401.50 524.70 L 408.60 521.00 L 410.10 520.50 L 411.60 520.70 L 413.00 521.40 L 414.00 522.60 L 414.40 524.10 L 414.30 525.70 L 413.60 527.00 L 412.30 528.00 L 405.30 531.80 L 403.80 532.20 L 402.20 532.10 L 400.80 531.30 L 399.90 530.10 L 399.40 528.60 L 399.60 527.10 L 400.30 525.70 L 401.50 524.70 Z" fill="#ffffff" fill-rule="evenodd" group-id="1,2,7,14,16" node-id="456" stroke="none" target-height="11.700012" target-width="15" target-x="399.4" target-y="520.5"></path></g><path d="M 417.70 509.40 L 422.30 500.90 L 424.50 504.90 L 435.10 495.20 L 423.30 508.20 L 422.10 505.00 L 417.70 509.40 Z" fill="#98d6fa" fill-rule="evenodd" group-id="1,2,7" id="路径-110" node-id="127" stroke="none" target-height="14.199982" target-width="17.399994" target-x="417.7" target-y="495.2"></path><path d="M 425.30 523.10 L 433.80 518.70 L 433.40 523.40 L 447.60 521.50 L 430.50 525.40 L 431.40 522.00 L 425.30 523.10 Z" fill="#98d6fa" fill-rule="evenodd" group-id="1,2,7" id="路径-110-2" node-id="128" stroke="none" target-height="6.700012" target-width="22.300018" target-x="425.3" target-y="518.7"></path></g></g></g></svg>